<?xml version="1.0" encoding="utf-8"?>
<!-- Generator: Adobe Illustrator 26.3.1, SVG Export Plug-In . SVG Version: 6.00 Build 0)  -->
<svg version="1.1" id="Ebene_1" xmlns="http://www.w3.org/2000/svg" xmlns:xlink="http://www.w3.org/1999/xlink" x="0px" y="0px"
	 viewBox="0 0 500 364.1" style="enable-background:new 0 0 500 364.1;" xml:space="preserve">
<style type="text/css">
	.st0{clip-path:url(#SVGID_00000143606952914973654740000016634199972500927390_);}
	.st1{fill:url(#Pfad_1_00000135673543249196374310000015274510348234446755_);}
	.st2{fill:#FFFFFF;}
	.st3{fill:#FFFFFF;stroke:#CCCCCC;stroke-width:5;}
	.st4{fill:#FFC640;}
	.st5{font-family:'CircularPro-Bold';}
	.st6{font-size:68.0123px;}
	.st7{letter-spacing:-2;}
	.st8{font-size:50.7001px;}
	.st9{letter-spacing:-1;}
	.st10{font-size:34.6245px;}
	.st11{clip-path:url(#SVGID_00000178192629652743675650000010262035849953743751_);}
	.st12{fill:none;stroke:#0D3D94;stroke-width:33;}
	.st13{font-size:29.6781px;}
	.st14{clip-path:url(#SVGID_00000002356618161409933150000003708481893631369149_);}
	.st15{fill:#0D3D94;}
</style>
<g id="Gruppe_127" transform="translate(0 290.119)">
	<g>
		<defs>
			<path id="SVGID_1_" d="M249.5-285.7c-40.6,0-73.6,32.9-73.6,73.6h-21.6c-32.8,0.1-59.4,26.7-59.5,59.5l0,0v7.7c0,0.5,0,1.1,0,1.6
				H84c-42,0.1-76.1,34.2-76.2,76.2l0,0C7.9-25.1,42,9,84,9.1h221.5L415.1,73l0-63.9c42-0.1,76.1-34.2,76.2-76.2l0,0
				c-0.1-42-34.2-76.1-76.2-76.2h-10.9c0-0.5,0-1.1,0-1.6l0,0v-7.7c-0.1-32.8-26.7-59.4-59.5-59.5h-21.6
				C323.1-252.8,290.2-285.7,249.5-285.7z"/>
		</defs>
		<clipPath id="SVGID_00000119819096402064277020000000452822369127815308_">
			<use xlink:href="#SVGID_1_"  style="overflow:visible;"/>
		</clipPath>
		<g id="Gruppe_118" style="clip-path:url(#SVGID_00000119819096402064277020000000452822369127815308_);">
			<g id="Gruppe_117" transform="translate(0 2.434)">
				
					<linearGradient id="Pfad_1_00000144317469727319260340000006272354337816874934_" gradientUnits="userSpaceOnUse" x1="1.1388" y1="207.2276" x2="2.3754" y2="207.2276" gradientTransform="matrix(391 0 0 -290.119 -437.5 60011.8906)">
					<stop  offset="0" style="stop-color:#399FE1"/>
					<stop  offset="1" style="stop-color:#38A639"/>
				</linearGradient>
				<path id="Pfad_1" style="fill:url(#Pfad_1_00000144317469727319260340000006272354337816874934_);" d="M7.8-288.2h483.5V70.6
					H7.8V-288.2z"/>
			</g>
		</g>
	</g>
	<g id="Gruppe_128">
		<g id="Gruppe_119" transform="translate(280.815 -95.745)">
			<path id="Pfad_3" class="st2" d="M74.2,50.4h-5.7c0-0.3,0-0.6,0-0.9v-4.1c0-17.2-14-31.1-31.2-31.2H26C26-7,8.8-24.3-12.5-24.3
				c0,0,0,0,0,0c-21.3,0-38.6,17.3-38.6,38.6c0,0,0,0,0,0h-11.3c-17.2,0.1-31.1,14-31.1,31.2v4.1c0,0.3,0,0.6,0,0.9h-5.7
				c-22,0.1-39.9,17.9-39.9,40l0,0c0.1,22,17.9,39.9,39.9,40H74.2c22-0.1,39.9-17.9,39.9-40l0,0C114.1,68.3,96.3,50.4,74.2,50.4"/>
		</g>
		<g id="Gruppe_120" transform="translate(280.815 -95.745)">
			<path id="Pfad_4" class="st3" d="M74.2,50.4h-5.7c0-0.3,0-0.6,0-0.9v-4.1c0-17.2-14-31.1-31.2-31.2H26C26-7,8.8-24.3-12.5-24.3
				c0,0,0,0,0,0c-21.3,0-38.6,17.3-38.6,38.6c0,0,0,0,0,0h-11.3c-17.2,0.1-31.1,14-31.1,31.2v4.1c0,0.3,0,0.6,0,0.9h-5.7
				c-22,0.1-39.9,17.9-39.9,40l0,0c0.1,22,17.9,39.9,39.9,40H74.2c22-0.1,39.9-17.9,39.9-40l0,0C114.1,68.3,96.3,50.4,74.2,50.4z"/>
		</g>
	</g>
	<g id="Gruppe_122" transform="translate(209.2 -117.459)">
		<path id="Pfad_6" class="st4" d="M57.3,45.2L90.2-6.4L70.6,1.8L57.3-72.1L43.9,1.8L24.3-6.4L57.3,45.2z"/>
	</g>
	<g id="Gruppe">
		<text transform="matrix(1 0 0 1 54.3022 -71.6065)" class="st2 st5 st6 st7">C</text>
		<text transform="matrix(1 0 0 1 105.7876 -71.6065)" class="st2 st5 st6 st7">O₂</text>
	</g>
	<g id="Gruppe-2">
		<text transform="matrix(1 0 0 1 349.2412 -82.1328)" class="st2 st5 st8 st9">C</text>
		<text transform="matrix(1 0 0 1 387.6211 -82.1328)" class="st2 st5 st8 st9">O₂</text>
	</g>
	<g id="Gruppe-3">
		<text transform="matrix(1 0 0 1 162.0425 -148.8311)" class="st2 st5 st10 st9">C</text>
		<text transform="matrix(1 0 0 1 188.2529 -148.8311)" class="st2 st5 st10 st9">O₂</text>
	</g>
	<g>
		<defs>
			<rect id="SVGID_00000007417576160450891350000014972563407955486102_" x="7.8" y="-285.7" width="483.5" height="358.8"/>
		</defs>
		<clipPath id="SVGID_00000155860977782008081800000011825202386332320415_">
			<use xlink:href="#SVGID_00000007417576160450891350000014972563407955486102_"  style="overflow:visible;"/>
		</clipPath>
		<g id="Gruppe_124" style="clip-path:url(#SVGID_00000155860977782008081800000011825202386332320415_);">
			<g id="Gruppe_123" transform="translate(102.382 -234.247)">
				<path id="Pfad_7" class="st12" d="M32,17.6h259.8"/>
			</g>
		</g>
	</g>
	<g id="Gruppe-4">
		<text transform="matrix(1 0 0 1 141.5459 -205.4942)" class="st2 st5 st13">BUDGE</text>
		<text transform="matrix(1 0 0 1 243.9922 -205.4942)" class="st2 st5 st13">T HO</text>
		<text transform="matrix(1 0 0 1 316.3184 -205.4942)" class="st2 st5 st13">TELS</text>
	</g>
	<g>
		<defs>
			<rect id="SVGID_00000094587543127272385380000017112835772883813527_" x="7.8" y="-285.7" width="483.5" height="358.8"/>
		</defs>
		<clipPath id="SVGID_00000179648484831287087870000012154597597404203176_">
			<use xlink:href="#SVGID_00000094587543127272385380000017112835772883813527_"  style="overflow:visible;"/>
		</clipPath>
		<g id="Gruppe_126" style="clip-path:url(#SVGID_00000179648484831287087870000012154597597404203176_);">
			<g id="Gruppe_125" transform="translate(162.085 -66.422)">
				<path id="Pfad_9" class="st15" d="M46.1,57.3c0,5.7,4.7,10.9,12.5,10.9c4.3,0.2,8.3-1.8,10.7-5.4c0,1.5,0.1,2.9,0.4,4.4h9
					c-0.3-1.9-0.4-3.8-0.4-5.8V43.6c0-7.3-4.3-13.8-15.8-13.8c-9.8,0-15,6.3-15.6,12l8.7,1.8c0.3-3.2,2.7-5.9,7-5.9
					c4.1,0,6.1,2.1,6.1,4.7c0,1.3-0.7,2.3-2.7,2.6L57,46.3C50.9,47.2,46.1,50.8,46.1,57.3 M60.7,60.9c-3.2,0-4.7-2.1-4.7-4.2
					c0-2.8,2-4.2,4.5-4.6l8.2-1.3v1.6C68.7,58.9,64.8,60.9,60.7,60.9 M121.6,67.2h12.7l-11.8-12.4l7.3-7.7V34.8l-13.2,13.8l-7.9-8.4
					l2-1.5c3.8-2.8,7.4-6.7,7.4-12c0-7.8-6.2-13.2-14.6-13.2c-7.1,0-14.5,4.9-14.5,13.7c0,4.7,3.3,8.7,5.8,11.4l0.8,0.9l-0.4,0.2
					c-5.5,4.1-8.9,7.8-8.9,14.3c0,7,5.6,14.1,15.9,14.1c5.6,0,10.1-2.7,14.1-6.7L121.6,67.2z M102.3,59.6c-3.4,0.1-6.2-2.6-6.3-6
					c0,0,0,0,0-0.1c0-3.1,1.7-5.1,4.2-7l1.1-0.8l8.9,9.5C107.8,57.9,105.5,59.6,102.3,59.6 M98.3,27c-0.1-2.8,2-5.1,4.7-5.2
					c0.1,0,0.2,0,0.4,0c2.8-0.1,5.2,2,5.3,4.8c0,0.1,0,0.2,0,0.2c0,1.9-0.9,3.8-3.3,5.5l-2.6,1.9l-1.4-1.5
					C100.1,31.4,98.3,29.2,98.3,27 M155.9,59.4c-4.8,0-9.2-3.5-9.2-10.4c0-6.9,4.4-10.4,9.2-10.4c4.8,0,9.2,3.5,9.2,10.4
					S160.7,59.4,155.9,59.4 M155.9,29.7c-10.9,0-19.1,8.1-19.1,19.3c0,11.2,8.2,19.3,19.1,19.3c10.9,0,19.1-8.1,19.1-19.3
					C175,37.8,166.8,29.7,155.9,29.7"/>
			</g>
		</g>
	</g>
</g>
</svg>
