<?xml version="1.0" encoding="utf-8"?>
<!-- Generator: Adobe Illustrator 26.3.1, SVG Export Plug-In . SVG Version: 6.00 Build 0)  -->
<svg version="1.1" id="Ebene_1" xmlns="http://www.w3.org/2000/svg" xmlns:xlink="http://www.w3.org/1999/xlink" x="0px" y="0px"
	 viewBox="0 0 500 500" style="enable-background:new 0 0 500 500;" xml:space="preserve">
<style type="text/css">
	.st0{fill:#FFFFFF;}
</style>
<g id="Gruppe_336" transform="translate(0 261.51)">
	<g id="Gruppe_333" transform="translate(106.737 -247.511)">
		<path id="Pfad_210" class="st0" d="M299.1,147.1V51.5c0-7.6-5.9-13.8-13.1-13.8c0,0,0,0,0,0h-35.7c-7.2,0-13.1,6.2-13.1,13.8
			c0,0,0,0,0,0v38.8L143.8,4.6L-93.6,222.4c-7.5,6.9-8.3,18.9-1.7,26.8c3.4,4.1,8.4,6.5,13.6,6.5c4.4,0,8.6-1.7,11.9-4.7L143.8,54.5
			L357.5,251c7.5,6.9,18.9,6.1,25.5-1.8c6.6-7.9,5.8-19.9-1.7-26.8l0,0L299.1,147.1z"/>
	</g>
	<g id="Gruppe_334" transform="translate(127.613 -223.535)">
		<path id="Pfad_211" class="st0" d="M304.7,426.1V220.4L122.9,55.4L-58.9,220.4v205.7c0,10.8,8.3,19.6,18.6,19.6h326.3
			C296.4,445.7,304.7,436.9,304.7,426.1C304.7,426.1,304.7,426.1,304.7,426.1 M50.8,245.1c0,0,78.5,16.3,102,62.3
			c17.3,33.8,12,79-13.4,96.2c-1.5-17.7-6.8-36.6-16-59.3c-7.5-17.7-17.5-34-29.6-48.5c9.2,19.8,16.7,40.5,22.4,61.8
			c4.5,17.2,6.2,35,5.1,52.8c-19.5,2.3-45.5-18.9-49.8-46.6c-4.4-29,2.8-39.2-1.8-58.9C64.6,284.5,58.3,264.6,50.8,245.1
			 M224.5,237.5c-10.8,13.8-19.9,28.9-27.1,45.1c-8,18.5-13,46.5-26.4,57.1c-1.3-12.8-4.8-25.2-10.6-36.5c-2.3-4.5-5-8.7-8.1-12.6
			c13.8-15.1,26.4-26.3,26.4-26.3c-11.2,5.5-21.8,12.2-31.8,20c-10.3-10.6-22.2-19.4-35.1-26.1c2.6-2.9,5.4-5.5,8.4-8
			C159.2,217.7,224.5,237.5,224.5,237.5"/>
	</g>
</g>
</svg>
