<?xml version="1.0" encoding="utf-8"?>
<!-- Generator: Adobe Illustrator 26.3.1, SVG Export Plug-In . SVG Version: 6.00 Build 0)  -->
<svg version="1.1" id="Ebene_1" xmlns="http://www.w3.org/2000/svg" xmlns:xlink="http://www.w3.org/1999/xlink" x="0px" y="0px"
	 viewBox="0 0 500 500" style="enable-background:new 0 0 500 500;" xml:space="preserve">
<style type="text/css">
	.st0{clip-path:url(#SVGID_00000031183235002430860330000005981908140063149459_);}
	.st1{fill:#FFFFFF;}
</style>
<g>
	<defs>
		<rect id="SVGID_1_" x="39.5" y="8.3" width="419" height="483.4"/>
	</defs>
	<clipPath id="SVGID_00000000931278740168643510000004270625332974638520_">
		<use xlink:href="#SVGID_1_"  style="overflow:visible;"/>
	</clipPath>
	<g id="Gruppe_385" style="clip-path:url(#SVGID_00000000931278740168643510000004270625332974638520_);">
		<path id="Pfad_243" class="st1" d="M247.5,85.4c56,3.2,98.6,27.7,121.7,79.3c23.1,51.4,14.5,99.7-21,143.2
			c-0.9,1.1-1.8,2.1-2.8,3.1c-9.4,9.4-14,23.8-24.1,30.9c-9.8,6.9-24.8,4.5-37,8.7c-16,5.6-30.7,13.1-42.1,25.9
			c-3.6,4-6.3,3.9-10.6,1.4c-13.3-7.7-28-12.5-43.2-14.2c-3.9,0-7.3-2.5-8.4-6.2c-7.1-18.8-19.2-34.3-32.1-49.6
			c-36.2-43-44.5-91.6-21.5-143C149.5,113.3,192.1,88.8,247.5,85.4 M212.3,314.4l1.8,1.3l88.1-96.1c-11.8-2.4-21.5-5-31.4-6.2
			c-9-1.1-10.1-4.1-7-12.5c7.3-19.6,13.4-39.8,19.9-59.7l-1.8-0.9l-88.2,104.3c12.6,2.5,23.4,4.9,34.3,6.7c5.8,1,7.2,3.1,5,8.8
			C225.9,278.1,219.2,296.3,212.3,314.4"/>
		<path id="Pfad_244" class="st1" d="M328.2,389.6c-43.5,6.4-85.1,39.9-91.3,78c-13.2-13.4-15.9-39.9-5.7-61.8
			c11.9-25.7,34.1-39.6,59.7-48.2c39.5-13.4,79-9.3,119.6,2.6c-25.6,22.8-36.1,54.1-52.8,81.4c-10.2,16.7-22.2,31.7-39.8,41.5
			c-21.6,12-42.8,11.1-64-1.2c-5.1-2.9-6.6-5.9-4.9-11.7c9.1-31.8,29.3-54.5,57.6-70.4C313,396.2,320,393.4,328.2,389.6"/>
		<path id="Pfad_245" class="st1" d="M230.7,387.5c-4.4,6.1-7.8,12.9-10,20.1c-1.6,5.3-3.8,7.7-9.5,4c-8.8-5.7-19.3-7-29.4-9.4
			c8.7,5.6,18.9,8.4,27.1,14.8c2.9,2.3,6.7,4,6,8.8c-2.3,15,2.1,29,6.8,42.8c2,6,1,7.6-5.4,8.2c-22.5,1.9-38.3-9.4-52.2-25.1
			c-10.6-12.1-17.1-26.9-26.1-40.1c-7-10.6-15.1-20.4-24.3-29.1C154.1,370.7,192.7,364.2,230.7,387.5"/>
		<path id="Pfad_246" class="st1" d="M65.4,225.7c-5.6,0-11.1,0-16.7,0c-5.2-0.1-9-2.5-9.2-7.8c-0.2-5.4,3.6-8.3,8.7-8.4
			c11.5-0.2,22.9-0.3,34.4,0c5.1,0.1,8.8,2.9,8.6,8.4c-0.2,5.5-4,7.8-9.1,7.9C76.5,225.8,71,225.7,65.4,225.7"/>
		<path id="Pfad_247" class="st1" d="M432.9,225.7c-5.9,0-11.8,0.1-17.7-0.1c-4.7-0.2-8.1-2.6-8.4-7.5c-0.3-5.5,3.2-8.5,8.3-8.6
			c11.5-0.3,23-0.2,34.4-0.1c5.1,0.1,9,2.7,9,8.1c0,5.4-3.7,8-8.9,8.1C444,225.8,438.5,225.7,432.9,225.7"/>
		<path id="Pfad_248" class="st1" d="M75.6,108.8c1.7,0.8,4.3,1.8,6.6,3.2c8.8,5,17.5,10,26.2,15.2c4.1,2.5,7.3,5.9,4.3,11.1
			c-2.7,4.9-7.1,5.6-11.6,3.1c-10.3-5.7-20.5-11.8-30.7-17.8c-3.3-1.6-4.9-5.5-3.6-8.9C67.9,111.1,70.6,109,75.6,108.8"/>
		<path id="Pfad_249" class="st1" d="M431.6,116.4c0.1,4-2.4,6.4-5.5,8.2c-9.3,5.4-18.6,10.8-28,16.2c-4.8,2.7-9.5,3-12.6-2.3
			c-3.4-5.8,0.4-9.1,4.8-11.8c9.3-5.5,18.5-11,28-16.1C424.9,107.2,431.3,110.3,431.6,116.4"/>
		<path id="Pfad_250" class="st1" d="M113.8,299.8c-0.1,3.6-2.2,6.7-5.5,8.3c-9.3,5.4-18.7,10.7-28,16.1c-4.9,2.8-9.5,3.2-12.7-2
			c-3.4-5.5,0.1-9.2,4.6-11.9c9.3-5.5,18.5-11,28-16.1C106.9,290.7,113.3,293.6,113.8,299.8"/>
		<path id="Pfad_251" class="st1" d="M431.6,318.2c0.1,4.4-3.4,8-7.8,8.1c-1.5,0-2.9-0.3-4.2-1.1c-10.8-5.6-21.2-11.9-31.5-18.3
			c-3.5-1.7-4.9-5.9-3.2-9.3c0.1-0.2,0.2-0.4,0.3-0.6c2.1-4,5.9-6,9.6-4c11.6,6.2,22.9,13,34.2,19.8
			C430.8,314,431.8,316.1,431.6,318.2"/>
		<path id="Pfad_252" class="st1" d="M174.4,74.4c-0.2,3.2-2.3,6-5.3,7.1c-3.3,1.6-7.3,0.4-9.2-2.7c-6.4-10.7-12.6-21.5-18.7-32.4
			c-2-3.4-0.9-7.8,2.5-9.8c0.1-0.1,0.2-0.1,0.3-0.2c3.2-2,7.4-2.2,9.5,1c7.2,11.4,13.7,23.2,20.5,34.9
			C174.2,73,174.4,73.7,174.4,74.4"/>
		<path id="Pfad_253" class="st1" d="M330.6,82c-4.8-1.2-8.9-4.6-6.2-10.1c5.9-11.7,12.8-23,19.7-34.2c2.1-3.3,6.1-3.4,9.4-1.5
			c3.7,2.1,5.5,5.9,3.4,9.7c-6.1,11.2-12.7,22.3-19.2,33.3C336.5,81.4,334,82.1,330.6,82"/>
		<path id="Pfad_254" class="st1" d="M257,34.5c0,5.5,0.1,11.1,0,16.6c-0.1,5.3-2.8,8.8-8.1,8.8c-4.1,0.2-7.6-3.1-7.7-7.2
			c0-0.3,0-0.6,0-0.9c-0.1-11.8-0.1-23.5,0-35.3c0.1-4.7,2.5-8,7.5-8.2c5.6-0.2,8.1,3.3,8.3,8.5C257.1,22.7,257,28.6,257,34.5"/>
	</g>
</g>
</svg>
