<?xml version="1.0" encoding="utf-8"?>
<!-- Generator: Adobe Illustrator 26.3.1, SVG Export Plug-In . SVG Version: 6.00 Build 0)  -->
<svg version="1.1" id="Ebene_1" xmlns="http://www.w3.org/2000/svg" xmlns:xlink="http://www.w3.org/1999/xlink" x="0px" y="0px"
	 viewBox="0 0 500 500" style="enable-background:new 0 0 500 500;" xml:space="preserve">
<style type="text/css">
	.st0{fill:none;stroke:#FFFFFF;stroke-width:23;}
	.st1{fill:#FFFFFF;}
</style>
<g id="Gruppe_410" transform="translate(-761.947 -1303.847)">
	<g id="Gruppe_167" transform="translate(766.448 1308.347)">
		<path id="Pfad_48" class="st0" d="M479.6,246c0,130.6-105.1,236.9-234.2,236.9S11.3,376.6,11.3,246S116.4,9.2,245.5,9.2
			S479.6,115.4,479.6,246"/>
	</g>
	<g id="Gruppe_168" transform="translate(814.015 1329.156)">
		<path id="Pfad_49" class="st1" d="M224.8,106.8l-26.9-52.6L171,106.8c-17.1,33.4-56.8,115.4-56.8,153.1
			c0,51.6,37.5,93.6,83.7,93.6c46.2,0,83.8-42.1,83.8-93.6C281.6,222.3,241.8,140.3,224.8,106.8 M197.9,319
			c-29.1,0-52.8-26.5-52.8-59s52.8-136,52.8-136s52.8,103.5,52.8,136S227.1,319,197.9,319"/>
	</g>
	<g id="Gruppe_169" transform="translate(829.638 1371.437)">
		<path id="Pfad_50" class="st1" d="M186.8,253.6c-0.5,0.1-0.9,0.1-1.4,0.1c-20.6,0-37.4-18.7-37.4-41.7c0-11.1,9.8-37.7,22.2-66.4
			c-0.9,17.3-0.5,34.6,1,51.8C173.3,216.9,178.6,235.9,186.8,253.6"/>
	</g>
</g>
</svg>
