<?xml version="1.0" encoding="utf-8"?>
<!-- Generator: Adobe Illustrator 26.3.1, SVG Export Plug-In . SVG Version: 6.00 Build 0)  -->
<svg version="1.1" id="Ebene_1" xmlns="http://www.w3.org/2000/svg" xmlns:xlink="http://www.w3.org/1999/xlink" x="0px" y="0px"
	 viewBox="0 0 500 500" style="enable-background:new 0 0 500 500;" xml:space="preserve">
<style type="text/css">
	.st0{fill:#FFFFFF;}
</style>
<g>
	<path class="st0" d="M374.1,466.8c-82,0-164.1,0-246.1,0c-0.2-0.4-0.4-0.8-0.6-1.1C87,395.8,46.7,325.9,6.3,256c-1-1.7-1-2.9,0-4.6
		c36-62.2,71.9-124.4,107.8-186.6c4.3-7.4,8.6-14.8,12.8-22.2c0.9-1.6,1.9-2.4,3.7-2c0.1,0,0.1,0,0.2,0c80.2,0,160.5,0,240.7,0
		c1.9,0,2.9,0.5,3.8,2.2c38.9,67.5,77.9,135,116.8,202.5c1.5,2.6,3.1,5.2,4.6,7.9c0,0.4,0,0.9,0,1.3c-1,0.8-1.3,2-1.9,3
		c-40,69.2-79.9,138.3-119.8,207.5C374.7,465.5,374.2,466,374.1,466.8z M212.5,336c0.1,0.1,0.1,0.2,0.2,0.4c-1,1.1-2,2.2-2.9,3.4
		c-1.4,1.6-1.9,3.5-1.3,5.6c0.4,1.3,0.7,2.6,1,3.9c3.6,12.1,4.3,24.3,1.4,36.7c-0.1,0.4-0.1,0.8-0.2,1.3c0,1.6,1,2.5,2.6,2.3
		c0.9-0.1,1.5-0.7,2-1.4c0.7-1,1.1-2.2,1.4-3.3c2.2-7.2,2.7-14.5,1.5-22c-0.6-3.7-0.8-7.4-0.2-11.1c0.6-3.5,1.8-6.8,4.5-9.3
		c5.8-5.3,12.6-7.9,20.6-6.4c2.5,0.5,5,1.2,7.5,1.8c3.1,0.7,3.5,1,3.6,4.2c0,0.5,0,1,0,1.5c-0.2,2.6-0.5,5.1-1,7.6
		c-0.7,3.3-1.7,6.5-2.1,9.8c-0.9,7.3-1,14.5,0.7,21.6c1.2,5,3.4,9.5,6,13.8c1,1.7,2.4,1.9,4.2,0.8c1.8-1,2.2-2.1,1.3-3.9
		c-0.4-0.9-1-1.7-1.4-2.6c-4.8-10.8-5.1-21.6-0.7-32.6c1.7-4.3,2.9-8.6,3.2-13.2c0.1-1.8,0.2-3.7,0.7-5.5c0.7-2.5,1.9-3.3,4.4-2.6
		c1.7,0.5,3.2,1.2,4.7,2c3.2,1.6,6.3,3.4,9.6,4.7c3,1.2,4.6,4.5,4.2,7.7c-0.2,1.3-0.2,2.7-0.3,4c-0.3,8.4,1.6,16.4,3.6,24.4
		c0.4,1.7,1.1,3.4,1.9,5c1,2,2.2,3.8,3.7,5.5c1.2,1.3,2.7,1,3.5-0.5c0.4-0.9,0.2-1.6-0.2-2.4c-3.1-6.1-4.3-12.7-4.8-19.6
		c-0.4-5.1,0.3-10.1-0.2-15.1c-0.1-1.4,0.4-2.5,1.8-3.1c1.2-0.5,2.1-0.2,3.4,1.1c0.8,0.9,1.5,1.9,2.4,2.7c8.2,6.9,17.5,9.5,28.1,7.6
		c7.6-1.4,14-5.3,19.1-11c9.3-10.5,13.3-22.9,12-36.9c-0.8-8.9-4.2-16.8-10.5-23.3c-1.8-1.9-3.7-3.8-5.5-5.6
		c-6.1-5.9-12.5-11.5-20-15.6c-12.1-6.7-24.8-7.8-37.9-3.5c-2.4,0.8-4.8,1.6-7.4,1.6c-1.9,0-2.8,1.1-3,3c-0.1,1,0,2,0,3
		c0.4,9.6-1.1,18.9-4.6,27.8c-0.6,1.6-1.4,3.1-2.7,4.3c-1.4,1.3-3,1.9-4.9,1.6c-4.5-0.7-7-3.9-6.6-8.4c0.1-0.8,0.3-1.7,0.4-2.5
		c0.5-2.4,1.1-4.7,1.6-7.1c1-5.1,1-10.2-0.8-15.2c-1-2.7-2.2-3.4-5.1-2.9c-1.5,0.2-2.9,0.6-4.4,0.7c-8,0.6-14.9-1.9-20.6-7.6
		c-1.9-1.9-4.1-3.3-6.7-3.9c-10.4-2.3-20.7-2.5-31.1,0.3c-11.3,3-20.8,9-29.2,17c-1.4,1.3-2.8,2.7-4.3,3.9c-2.3,1.9-4.9,2.7-7.9,2.4
		c-1.3-0.2-2.7-0.1-4,0.2c-3.1,0.6-5.4,2.4-7.6,4.5c-7.8,7.4-11,16.4-9.6,27c0.5,3.8-0.8,6.7-4.2,8.5c-7.6,4.1-13.9,9.6-19.2,16.4
		c-0.7,0.9-1.3,1.9-1.8,2.9c-1.2,2.5-0.6,4.4,1.8,5.8c2.2,1.3,3.7,0.9,5.4-1.5c0.2-0.2,0.3-0.5,0.5-0.7c4.3-7.6,10.7-13.2,17.6-18.3
		c1.2-0.9,1.9-0.9,2.9-0.1c3.7,3.3,4.1,5.7,1.2,8.9c-0.3,0.3-0.6,0.6-0.8,1c-5.9,7-10.2,14.9-12.8,23.7c-0.4,1.3-0.6,2.6-0.6,4
		c0.1,2.2,1.2,3.4,3.5,3.9c2.1,0.4,3.6-0.3,4.6-2.2c0.6-1.2,0.8-2.4,1-3.7c1.5-7.6,4.3-14.6,8.5-21c0.7-1,1.4-2,2.3-2.8
		c1.2-1,2.5-1.4,4-0.9c0.7,0.2,1.3,0.5,2,0.8c5.3,2.4,10.4,2.1,15.1-1.5c3-2.3,5.9-2.7,9.3-1.2c5.8,2.5,11.9,3.8,18.2,4
		c6.6,0.3,12.9-0.9,19.1-2.8C208.9,337,210.7,336.5,212.5,336z M381.9,171.4c0-5.7-1.1-11.6-3.4-18.1c-9.1-25.2-29.1-33-49.8-33.4
		c-3.4-0.1-6.8,0.4-10.2,0.7c-1.2,0.1-2.4,0.3-3.6,0.6c-7.7,2-15,5-21.7,9.2c-10.6,6.6-18.8,15.6-25.5,26
		c-7.4,11.7-13,24.2-17.5,37.2c-5.3,15.1-9.2,30.5-13.1,46c-0.7,2.6-0.9,5.3-0.7,8.1c0.3,5.1,2.9,8.3,7.8,9.6c3,0.8,6.1,0.8,9.1,0.5
		c8.1-0.9,16.2-2.1,24.3-3.6c15.1-2.8,29.8-6.8,44-12.8c9.4-4,18.6-8.2,27.2-13.8c11.4-7.3,20.4-16.8,26.5-28.9
		C379.5,190.3,382,181.6,381.9,171.4z M189.5,174.9c0.4,11.7,2,22.7,4.9,33.6c3,11.6,7,22.8,10.8,34.2c0.5,1.4,1.3,2.4,2.4,3.2
		c3.1,2.3,6.6,3.9,10.5,4.5c3.7,0.5,4.7-0.3,5.1-4c0.6-6.5,1.8-12.8,3.3-19.1c2.5-10.5,6.1-20.7,9.5-31c3.3-9.7,6.5-19.4,10.8-28.7
		c7.6-16.4,17.6-31.1,31.9-42.4c1.2-1,1.2-1,0.1-2.3c-5-6.4-11.3-11-19-13.5c-12.4-3.9-24.4-2.6-35.9,3c-13.9,6.9-23.4,18-29.3,32.3
		C190.5,154.4,189.4,164.8,189.5,174.9z"/>
	<path class="st0" d="M299.3,313.8c-1.5-0.1-3-0.3-4.3-1c-3.3-1.6-4.5-4.9-2.9-8.2c0.4-0.9,1-1.7,1.5-2.6c2.9-4.9,5.6-9.9,7.3-15.4
		c1.3-4.1,2.1-8.3,2-12.6c0-0.5,0-1,0-1.5c0.1-1.2,0.5-1.5,1.7-1.4c1.5,0.1,2.9,0.5,4.3,1.1c3.3,1.2,6.4,3,9.5,4.7
		c1.6,0.8,1.9,1.8,1.5,3.6c-2.6,11.3-7.5,21.5-14.9,30.3C303.5,312.6,301.8,314,299.3,313.8z"/>
	<path class="st0" d="M341.8,295.1c0.8,0.3,1.2,1,1.7,1.6c3.8,4.4,6.3,9.4,8.1,14.9c0.7,2.3,0.4,4.5-0.8,6.6
		c-3.8,6.1-8.5,11.6-14,16.2c-2.1,1.7-4.5,2.2-7,1.1c-2.6-1.2-4.3-3.2-4.8-6.1c-0.2-1.3,0.2-2.5,0.8-3.7c0.6-1,1.3-1.8,2.1-2.7
		c6.9-7.6,11.4-16.4,13.4-26.5C341.4,296,341.4,295.5,341.8,295.1z"/>
	<path class="st0" d="M144.5,311.2c0.1-1.9,0.1-3.8,0.6-5.7c0.9-2.9,2.6-5,5.3-6.3c2.3-1.1,4.6-0.4,5.9,1.7c3,4.7,2.5,10-1.4,14.1
		c-1,1.1-1.7,2.3-2.5,3.4c-2,3.1-5.2,2.9-7-0.3c-0.8-1.4-0.9-3-0.9-4.5C144.5,312.8,144.5,312,144.5,311.2z"/>
</g>
</svg>
