<?xml version="1.0" encoding="utf-8"?>
<!-- Generator: Adobe Illustrator 26.3.1, SVG Export Plug-In . SVG Version: 6.00 Build 0)  -->
<svg version="1.1" id="Ebene_1" xmlns="http://www.w3.org/2000/svg" xmlns:xlink="http://www.w3.org/1999/xlink" x="0px" y="0px"
	 viewBox="0 0 500 500" style="enable-background:new 0 0 500 500;" xml:space="preserve">
<style type="text/css">
	.st0{fill:#FFFFFF;}
</style>
<g id="Gruppe_384" transform="translate(-1208.681 -5166.817)">
	<g>
		<path class="st0" d="M1270,5659.1c-1.2-0.3-2.4-0.5-3.5-0.8c-6.8-1.8-12-6.1-16.1-11.6c-6.1-8-9.3-17.3-10.9-27.1
			c-0.8-4.7-1-9.5-1-14.2c0-23.3,0-46.6,0-70c0-2.1,0.1-4.3,0.1-6.4c0-0.9,0.3-1.2,1.2-1c0.8,0.1,1.6,0.1,2.5,0.1
			c144.4,0,288.7,0,433.1,0c1.2,0,2.8-0.7,3.5,0.1c0.8,0.9,0.4,2.5,0.4,3.8c0,14.5,0,29,0,43.4c0,11.8,0.3,23.6-0.1,35.4
			c-0.4,13.1-3.9,25.4-11.9,36.1c-4.4,5.8-10,10.2-17.4,11.7c-0.7,0.1-1.5,0-2.1,0.4C1521.8,5659.1,1395.9,5659.1,1270,5659.1z"/>
		<path class="st0" d="M1438.3,5175.1c2.4,1,4.7,2,6.4,4.1c0.8,1,1.6,2.1,2,3.4c0.3,0.8,0.6,0.7,1.1,0.2c1.3-1.3,2.4-2.8,3.4-4.4
			c0.6-0.9,1-1.1,1.6,0c3.1,5.2,3.5,10.6,1,16.2c-0.4,0.8-0.8,1.7-1.2,2.5c-0.9,1.9-0.3,3.7,0.2,5.5c0.3,0.8,0.7,1.2,1.3,0.1
			c1.2-1.9,2.7-3.4,4.9-4.5c-0.3,1.6-0.7,3.1-0.4,4.7c0.3,1.3,0.8,1.5,1.8,0.7c1.1-0.9,1.8-2.1,2.4-3.4c0.5-1.3,1-2.7,1.5-4.2
			c0.9,1.5,1,3.1,1.2,4.8c1.1-0.5,2.1-1,3.1-1.3c1-0.3,2-0.5,3.3-0.3c-0.5,0.7-1,1.2-1.4,1.8c-0.4,0.6-0.9,1.3-1.2,2
			c-0.4,0.9-0.6,1.9,0,2.6c0.7,0.8,1.6,0.2,2.4,0c1.3-0.3,2.4-1.2,3.7-1.9c-0.1,2.1-0.9,4-1.7,5.9c2.1-0.5,4-0.2,6,0.4
			c-0.1,0.6-0.6,0.8-1,1c-4,3-8.4,5.1-13.2,6.7c-6.3,2.1-11.7,5.6-16.2,10.5c-0.6,0.7-0.8,1.3-0.7,2.2c0.5,3.7,2.4,6.9,3.4,10.5
			c0.1,0.4,0.3,0.5,0.7,0.5c4.2,0,8.3,0.8,12.2,2.5c0.1,0,0.2,0,0.4-0.1c-1.3-1.5-2.6-2.9-3.4-4.7c-0.3-0.7-1-1.7-0.4-2.3
			c0.4-0.4,1.3,0.3,2,0.5c1.2,0.5,2.3,1.2,3.5,1.8c0.6-1,0.2-1.9,0.1-3c1.9,0.7,3.1,2.1,4.2,3.8c0.8-1.1,0.4-2.2,0.3-3.5
			c4.5,3,8.3,6.7,11.7,11.4c-0.2-3.5,0.4-6.3,2.5-8.8c0.3,1.4-0.2,2.9,1,4c0.7-2.4,2.1-4.3,4-6.1c0.1,1.2,0.1,2.2,0.5,3
			c0.4,0.8,0.8,1.1,1.6,0.4c1.9-1.6,3.3-3.3,3.6-6c1.2,1.2,1.4,2.6,1.7,4.2c1.2-1.4,2.8-2,4.8-2.5c-1.6,1.6-3,2.9-4.2,4.3
			c-2.4,2.9-4.3,6.1-5.9,9.5c-0.4,0.8-0.3,1.4,0.2,2.1c3.5,5.6,5,11.7,4.4,18.3c0,0.3,0,0.6,0,0.9c0,0.4,0.1,0.8,0.5,0.9
			c0.4,0.1,0.5-0.4,0.7-0.6c3.9-6.3,8.9-11.7,14.7-16.2c1.3-1,2.1-2.4,2.2-4.3c0.3-8.4-0.3-16.7-3.2-24.7c-0.6-1.6-1.3-3.2-2-4.8
			c2.3,0.7,3.7,2.2,7.5,7.9c1.1-3.1,1.2-6.1,0.7-9.3c2.8,3.6,4.3,7.8,5.2,12.2c0.8-2.2,1-4.4,1.3-6.6c0.2-2.2,0.2-4.4,0.1-7.1
			c2.4,3.7,3.1,7.4,3.3,11.3c1.7-6.9,2.5-13.9,2.8-21c3.2,5.3,6.2,10.6,6.7,17.2c4.5-3.7,9.4-6.2,15.4-7.3c-1.4,1.7-2.6,3.2-3.4,4.9
			c-0.8,1.7-1.6,3.5-1.7,5.7c5.3-3.4,11-3.8,17.1-2.9c-2.7,1.7-5.2,3.2-7.4,5.1c-1.6,1.4-3.1,2.8-4,4.7c-0.4,0.8-0.3,1.1,0.7,1
			c4.4-0.4,8.7-1,13-1.7c0.3,0,0.6-0.1,1.1-0.1c-2.7,4-6.1,6.7-10.3,8.4c-3.3,1.3-6.9,1.5-10.3,2.6c-3.3,1.1-6.6,2-9.9,3
			c6.8-0.7,13.6-2,20.5,1.2c-3.1,0.8-5.7,1.9-8.1,3.4c-1.5,1-1.5,1.1,0,2.1c2.3,1.7,5,2.5,7.7,3.4c0.4,0.1,0.8,0.2,1.6,0.5
			c-3.7,0.9-7.1,1.3-10.6,1.6c-6.5,0.5-13,0.1-19.4-1c-0.6-0.1-1.1-0.3-0.9,0.6c0.4,2.3,0.3,4.6-0.2,7.1c3.3-0.9,5.9-2.6,8.3-4.7
			c0.1-0.1,0.1-0.2,0.2-0.2c0.5-0.4,0.9-1.4,1.5-1.1c0.7,0.3,0.6,1.4,0.6,2.1c0,1.9-0.8,3.7-1.7,5.6c3.1-0.9,6-1.1,9,0.2
			c-1.4,0.6-2.5,1.2-3.7,1.8c-1.4,0.8-2.6,1.7-3.3,3.2c-0.3,0.7-0.2,1.1,0.6,1.1c2.4,0.1,4.6-0.2,6.9-0.9c0.5-0.1,0.9-0.3,1.6-0.5
			c-1.3,2.8-3.1,4.9-5.3,6.6c-2.2,1.7-4.8,2.7-7.7,3.4c2.1,1.9,4.4,3,6.7,4.2c2.2,1.1,4.6,2.1,7.1,3.3c-2.8,1.6-5.7,1.9-9.1,1.8
			c3.1,2.3,4.9,5.1,6.4,8.3c-0.7-0.1-0.9-0.6-1.3-0.9c-0.4-0.3-0.8-0.7-1.3-1c-0.8-0.5-1.6-1-2.5-1.4c-0.7-0.3-1.7-0.9-2.3-0.4
			c-0.6,0.4,0.3,1.2,0.4,1.8c0.3,2.2,0.1,4.3-0.7,6.3c-0.6-0.1-0.5-0.6-0.7-1c-1.9-5-4.8-9.4-8.6-13.2c-0.7-0.7-1.4-1.1-2.3-1.4
			c-2.2-0.5-4.4-1.3-6.7-1.5c-1.6-0.2-3.1,0-4.6,0.8c2.1,2.2,3.6,4.7,4.6,7.4c0.5,1.4,0.9,2.8,0.6,4.3c-0.1,0.5-0.1,1.3-1.1,0.8
			c-2.6-1.4-5.2-2.8-7.8-4.2c-1.6-0.9-3-2.1-4.4-3.7c0,3.6-2.1,5.7-4.5,7.6c-2.9,2.4-6.2,4.3-10.2,5.3c1.8-3.3,2.5-6.7,2.3-10.2
			c-0.1-2.2-0.6-4.3-2.4-5.7c-1.3-1-1.6-0.9-2.4,0.5c-9,17.8-15.5,36.5-19.5,56c-0.2,0.9-0.2,1.7-0.1,2.6c1,11,1.6,22,2.1,33
			c0.6,14.3,0.6,28.7,0.4,43c-0.1,6.8-0.5,13.7-0.8,20.5c0,0.9-0.4,1.1-1.2,1.1c-1.3,0-2.6-0.1-3.9,0c-1,0.1-1.3-0.3-1.3-1.3
			c0.3-6.5,0.6-13.1,0.8-19.6c0.2-8.8,0.2-17.7,0.1-26.5c-0.1-12.3-0.7-24.6-1.5-36.8c-0.8-11.9-1.9-23.7-3.2-35.5
			c-0.1-1-0.4-1.3-1.5-1.1c-1.7,0.3-3.3,0.6-4.8,1.6c-0.4,0.3-1,0.5-0.9,1c0,0.5,0.7,0.5,1.1,0.6c2.5,1.1,4.5,2.6,6.2,4.9
			c-0.7,0.2-1.1-0.1-1.5-0.3c-16.3-5.2-30.8-2-43.5,9.5c-0.7,0.7-0.9,1.5-1,2.3c-0.6,6.3-1.1,12.6-1.3,18.9c-0.4,11,0,22,1,33
			c0.8,8.3,1.9,16.6,3.6,24.8c0.7,3.4,2.6,6.4,3.8,9.6c1.8,4.6,3.5,9.1,5.4,13.7c0.4,1.1,0.2,1.4-1,1.4c-3.5,0-3.7,0.1-4.7-3.3
			c-1.5-5.5-4.9-9.5-9-13.3c-8.8-8.2-18.6-15.1-28.8-21.5c-6.6-4.1-13.5-8-20.3-11.7c-1.1-0.6-2.1-0.7-3.3-0.5
			c-8.9,1.9-15.2,7.3-19.8,14.8c-1.8,3-3.2,6.1-4.3,9.4c-0.3,1-0.6,0.9-1.2,0.2c-2.8-3.5-4-7.4-2.1-12c-5.5,2.3-10.9,3.6-16.9,1.9
			c3-2.2,5.7-4.2,8.2-7c-4.5,1-8.6,1.3-12.4-1.7c1.5-0.6,2.9-1.1,4.3-1.7c1.4-0.6,2.6-1.5,3.4-2.9c1.1-1.9,0.8-3.5-1-4.8
			c-2.2-1.6-4.6-2.6-7.1-3.6c-0.5-0.2-1-0.4-1.7-0.7c2.9-2.1,6-2.7,9.3-2.4c2.5,0.3,5,1,7.1,2.4c1.2,0.7,1.6,0.3,2-0.8
			c0.7-1.8,0.5-3.5,0-5.3c-0.2-0.8-0.8-0.6-1.3-0.4c-2.4,0.6-4.8,1.4-7.2,2.4c-0.5,0.2-1,0.4-1.6,0.6c0.2-3.1,1.8-5.3,4.3-7
			c-1-0.6-2.1-0.7-3-1.1c-7.3-3.4-14.4-2-21.4,1.1c-2.4,1.1-4.8,2.3-7.1,3.7c-2.6,1.7-5.6,2.5-8.8,2.4c0.7-2.1,2.1-3.5,4.2-4.9
			c-3.5,0.2-6.5-0.2-9.4-1.6c1.8-1.7,3.9-2.7,6.3-3.8c-4.6-0.8-9-1.5-12.5-4.8c1.5-0.6,2.9-0.9,4.1-1.8c0.3-0.2,0.7-0.4,0.5-0.8
			c-0.1-0.3-0.5-0.3-0.7-0.3c-2.8-0.7-5.3-1.9-7.8-4c1.8,0.2,3.2,0.3,4.6,0.4c2.9,0.3,5.7,0.4,8.6,0.2c1.2-0.1,2.8,0,3.2-1.2
			c0.4-1.3-0.9-2.1-1.8-2.9c-2.4-2.3-5.4-3.6-8.4-4.8c-0.9-0.3-1.7-0.6-2.6-1c-0.5-0.2-1.5-0.2-1.4-1c0.1-0.6,1-0.6,1.6-0.7
			c1.5-0.3,3.1-0.4,5.1-0.3c-3.5-1.8-6.8-3.2-9.1-6.3c0.9-0.2,1.7-0.4,2.7-0.6c-1-1.3-2-2.4-2.5-3.9c-1.1-3.3-0.9-3.1,2.2-2.8
			c3.3,0.3,5.9,2.1,8,4.9c0.9-1.9,0.6-3.7,0.2-5.5c0.6-0.1,0.9,0.2,1.2,0.4c3.9,2.4,6.6,5.8,8.3,10.1c0.7,1.8,1.4,3.5,2.6,5
			c0.3,0.4,0.7,0.9,1.3,0.7c0.6-0.2,0.7-0.8,0.8-1.3c0.2-1.1,0.1-2.2-0.2-3.3c-0.6-2-1.6-3.9-2.7-5.9c4.2,1,6.8,3.4,8.7,7.1
			c1.1-2,1-4,1.1-6.1c0.9,0.1,1.5,0.7,2.1,1.2c0.4,0.3,0.8,0.6,1-0.2c0.4-1.4,1.2-2.5,2.2-3.7c-2.6-0.6-4.8,0.4-7.1,1
			c4-5.3,9.5-8.2,16.1-9.8c-1.9-0.5-3.5-0.9-5-1.4c-1.4-0.4-2.7-1.1-3.8-2.1c-0.6-0.5-0.7-0.7,0.2-1c1.9-0.6,3.9-0.8,6-1
			c-0.4-1.3-1.5-2-2.4-2.9c2.4-0.4,4.5-0.2,6.7,0.8c-0.4-1.6-1.5-2.4-2.9-3.4c3.5-0.1,6.7,0.1,9.8,0.5c3.1,0.4,6.1,1.1,9.2,2
			c-4-5.2-4.8-6.8-4.8-9.6c0.4,0.4,0.8,0.8,1.2,1.1c0.8-1.9-0.1-5.6-1.4-6.8c-0.5-0.4-0.9-0.2-1.3,0c-2.6,0.9-4.8,2.4-6.6,4.4
			c-0.3,0.3-0.6,0.7-1.1,1.3c-0.5-5.4,0.8-10.1,4-14.7c-4.8,1.3-9.2,2.2-13,5.4c-1.1-2.6-0.8-5,0.6-7.3c2.2-3.6,5.7-5.8,9.6-7.2
			c2.4-0.8,4.8-1.4,7.5-2.2c-1.5-0.7-2.8-0.7-4.1-0.7c-7.2-0.3-13.8,1.7-20.3,4.4c-1.5,0.6-3,1.3-4.5,2.1c-1,0.5-1.2,0.1-1.2-0.7
			c-0.1-1.3,0.5-2.3,1.4-3.1c0.3-0.3,0.7-0.6,1.3-1.1c-4-1-7.7-0.7-11.7,0.7c2.5-3.7,5.1-6.8,9.2-8.3c-8-3-16.6-4.6-21.7-12.3
			c4.2,0.5,8.3,1.7,12.7,0.6c-0.6-0.6-1.2-1.2-1.7-1.7c-1.7-1.9-2.5-4.1-2.7-6.6c-0.1-1,0.1-1.2,1.1-0.7c3.7,2,7.5,3.9,11.6,5
			c1,0.3,2.4,0.8,3,0.1c0.6-0.6-0.6-1.6-1-2.5c-0.5-1.3-1.2-2.6-2-4.3c5.5,1.3,10.6,2.3,14.2,7c0-3.2-0.5-6.1-1.1-9.3
			c8.1,5.5,13.9,12.7,17.9,21.3c-0.3-2.4-1-4.7-1.2-7c-0.3-3.8,0.7-7.1,4.1-9.4c0.2-0.1,0.3-0.2,0.5-0.3c0.1,0,0.2,0,0.4,0
			c-0.5,1.8,0,3.3,1.2,4.9c0.8-2.3,2.4-3.7,4.6-4.5c0.2,1.2,0.2,2.4,0.6,3.4c0.2,0.4,0.2,0.9,0.9,0.4c2.2-1.6,4.3-1.9,7.3-1.3
			c-1.3,0.6-2.6,1-3.1,2.5c2.4,0.4,4.6,1.1,6.8,3c-5,0-9.1,1.6-12.4,5c-3.2,3.2-6.3,6.4-7.2,11.1c2.6-3.9,5.7-7.2,10-9.6
			c-0.1,1.4-0.4,2.6-0.3,3.8c0.2,1.9,0.5,2.1,2.3,2.1c4-0.1,8.1-0.2,12,1.2c0.8,0.3,1.6,0.5,2.4,1.2c-2.1,1.2-4,2.5-5.6,4.2
			c-0.7,0.7-1,1.2,0.4,1.4c1,0.2,2,0.6,2.9,1c1,0.5,1.3,0.2,1.6-0.8c0.2-0.7,0.5-1.3,0.9-2.1c0.6,0.3,0.7,0.9,0.9,1.3
			c1.5,2.9,3.2,5.6,6,7.4c3,1.9,3.9,1.6,4.7-1.8c0.7-3.1,0.6-6.2-1.3-9.3c1.8,0.9,3.1,2,4.4,3c1.3,1,2.5,2.1,3.9,3.3
			c0.6-2.3,1.4-4.3,3-6c1.5-1.6,3.3-2.8,5.6-3.4c0,2.3-0.3,4.4,0.2,6.6c0.1,0.5,0.2,1,0.4,1.4c0.8,2.3,1.2,2.4,3.1,1
			c2.7-1.9,5.7-3.1,9-3.3c0.5,0,1-0.1,1.5-0.5c2.4-2.1,5.2-3.3,8.4-3.6c0.1,0,0.2-0.1,0.5-0.2c-4.1-4.3-3.7-9.3-2-14.6
			c1.2,2.1,2.2,4,3.6,5.7c0.9,1.1,1.8,2.1,3,2.9c0.7,0.4,1.1,0.5,1.4-0.5c0.6-2.3,2.1-4,4.4-5c0.1,1.8,0.3,3.4,0.9,4.8
			c0.2,0.5,0.5,1,0.8,1.4c0.9,1.1,1.3,1.1,2-0.2c1.4-2.7,2.9-5.3,5.4-7.2c3.1-2.4,3.5-1.7,4.1,1.6c0.8,4.5-0.7,8.6-2.5,12.6
			c-1,2.1-2.1,4.1-3.5,6c-2.7,3.8-2.8,8.7-0.3,12.5c0.6,0.9,1,0.9,1.8,0.3c3.4-2.7,5.5-6.3,7.3-10.2c2.5-5.7,3.8-11.7,4.6-17.8
			c0.2-1.4,0.7-1.1,1.4-0.6c0.9,0.6,1.6,1.4,1.9,2.5c0.2,0.8,0.5,0.9,1.2,0.5c2.7-1.2,5.4-2.3,7.6-4.5c0.7,2.1,0.1,4-0.8,6
			c2.9-0.4,5.5-0.2,7.5,2.4c-2.9,1.1-5.2,3-7.4,5c-0.7,0.6-0.8,1,0,1.7c2,1.6,4,3.2,6.9,3.8c-2.8,1.5-5.6,1.9-8.5,1.8
			c2.8,1.8,5.8,2.8,9,3.1c0.4,0.1,1.1-0.2,1.3,0.4c0.1,0.4-0.4,0.9-0.7,1.2c-2.1,2.3-4.7,3.3-7.7,2.6c-1.2-0.3-1.2,0.2-0.9,1.1
			c0.4,1.2,1.4,2.1,2.6,2.8c-1.1,0.6-2.1,0.4-3.1,0.2c-2.1-0.5-3.8-1.7-5.4-3c-5.6-4.5-11.8-3.3-15.2,3.1c-0.3,0.6-0.4,1,0.1,1.5
			c0.8,1,1.6,2.1,2.5,3.2c0.9-2.7,2.4-4.9,5-6.2c0.1,1.1-0.3,2.1-0.4,3c-0.2,1.8,0.1,3.5,1,5.1c0.5,0.9,0.9,1,1.6,0.1
			c1.6-2,2.7-4.1,3.3-6.6c3.1,3,3.7,8.5,1.8,15.7c5.1-0.8,9.6-3.1,14.3-5c-0.2,2.9-1.5,5.3-3.4,7.7c3.4-0.7,6.4-0.2,9.5,0.5
			c0.9,0.2,0.8-0.4,0.7-0.9c-1.2-9.1-2.4-18.2-3.9-27.2c-2.7-16.4-5.9-32.7-9.7-48.8c-0.4-1.8-0.4-1.8-2.4-1.9c0-0.1,0-0.2,0-0.3
			c1.9-1.2,1.2-2.8,0.8-4.5c-0.6-3-1.1-6-1.6-9c-0.1-1-0.5-1.4-1.4-1.6c-9.8-2.6-21.1-3.5-31.4,0.7c0.2-2.4,1-4.2,3-5.6
			c-3.1-0.2-6.2-0.4-8.9,1.6c-0.8-2.2,0.2-4.6,2.9-6.4c-3.3-0.3-6.3,0.4-9.2,1.3c2.1-4.9,6.9-7.6,11.3-6.5c0.7,0.2,1.3,0.3,2,0.4
			c0.4,0,0.8,0,1-0.4c0.2-0.5-0.1-0.8-0.4-1.2c-0.8-0.8-1.9-1.4-2.9-1.9c-1.6-0.7-3.3-1.1-5.3-1.6c3.2-1.7,6.2-1.5,9.3-0.6
			c0-1.5-0.4-2.7-0.7-4c-0.2-0.7-0.7-0.6-1.3-0.7c-5.1-0.5-10.1-0.4-15.1,0.5c-0.3,0.1-0.6,0.1-1.2,0.1c3.2-5.2,7.9-6.6,13.3-6.6
			c-1.2-2.3-4-3.7-9.1-4.8c2.3-2.4,7.2-2.4,13.2,0.1c0.5-2.3-0.4-3.7-4.7-7.3c2.5-0.6,7.9,1,11.9,3.3c3.7,2.1,6.2,5.6,10,8
			c-1.3-3.9-8.4-13.5-13.6-13.3c1.5-1.4,3.2-2,5.1-2.1c1.5-0.1,3,0.1,4.5,0.5c2.2,0.5,2.9-0.3,2.4-2.5c-0.6-2.4-1.9-4.5-3-6.6
			c-0.1-0.3-0.3-0.5-0.4-0.8c4.4,0.1,8.6,4.3,9.8,9.7c1.6-0.9,2.2-2.2,2.4-3.9c0.3-2.9-0.7-5.5-1.8-8
			C1437.7,5175.1,1438,5175.1,1438.3,5175.1z M1378.8,5356.5c-0.3-0.5-0.5-0.9-0.7-1.3c-2.7-4-5.4-8-8-12.2c-1.2-1.9-2.5-2.9-5-3.2
			c-11.6-1.5-23.2-1.9-34.8-0.1c-6.6,1-13,2.8-18.9,5.9c-0.7,0.4-1.2,0.8-1.4,1.7c-0.6,4.6-0.4,9.2,0.6,13.8
			c1.2,5.5,3.7,10.3,7.5,14.4c0.3,0.3,0.6,1.2,1.4,0.5c2.5-2.5,5.5-2.3,8.6-1.5c0.4,0.1,0.8,0.5,1.2,0.1c0.3-0.4,0.1-0.8-0.1-1.3
			c-0.6-1.5-1.7-2.6-2.8-3.6c-1.5-1.4-3.3-2.5-5.3-3.9c4.3-0.5,7.3,1.7,10.5,3.7c-0.2-3.3-0.2-6.3,2.6-8.7c0.9,4.1,3.5,6.9,6.5,9.4
			c0.3-0.7,0.2-1.2,0.2-1.7c0.1-0.9,0.2-1.7,0.7-2.5c0.3-0.5,0.8-1,1.4-0.9c0.6,0.1,0.5,0.7,0.7,1.1c1,3.1,2.8,5.6,5.1,7.8
			c1.5,1.4,3.2,1.7,5.1,0.9c1-0.4,1.8-1,2.6-1.7c1.4-1.1,1.6-1.9,0.9-3.5c-0.9-2-2.3-3.6-3.8-5.1c-0.4-0.4-0.9-0.7-1-1.4
			c2.9,0.3,5.5,1.2,7.5,3.4c0.6-1.9,0.4-3.7,0.2-5.4c-0.2-1.7-0.6-3.5-0.9-5.5c2.6,1.9,4.7,3.8,6,6.6
			C1368.4,5357.4,1373.6,5356.9,1378.8,5356.5z M1379.7,5375.4c-1.1,0.1-1.9,0.2-2.8,0.3c-6,0.7-9.8,4.5-10.4,10.5
			c-0.3,3.3,0.1,6.5,0.8,9.7c0.3,1.5,1,2.4,2.4,3.1c13.3,6.4,25.7,14.2,37.4,23.2c3.5,2.7,6.9,5.5,10.3,8.5c0-0.8-0.4-1.3-0.6-1.9
			c-7.5-17.9-16.1-35.2-25.7-52c-3.6-6.4-7.4-12.6-11.4-18.8c-0.3-0.5-0.5-1.2-1.4-0.7c-3,1.6-5.1,3.9-6.3,7.2
			c5.2-0.7,9,0.1,11.2,2.4c-5.1-1.2-10.3,2.4-12,5.1C1376.2,5373,1377.9,5373.8,1379.7,5375.4z M1375,5345.3
			c15.2,21.2,28.1,43.3,39.3,66.4c0.1-0.8,0.1-1.5,0-2.2c-0.7-6.4-1.1-12.9-1.3-19.3c-0.4-12.4,0-24.8,1.2-37.1
			c0.1-0.9-0.1-1.5-0.7-2.1c-2.4-2.6-5.4-3.9-8.9-4.2c-5.4-0.4-10.3,1.3-15.1,3.5c-2.2,1-4.6,1.4-7.1,1.5c-0.5,0-1.2,0.1-1.4-0.5
			c-0.3-0.6,0.2-1.1,0.5-1.6c0.7-1,1.7-1.7,2.6-2.5c0.8-0.7,1.7-1.3,2.5-2C1382.9,5346.2,1379.2,5346.3,1375,5345.3z M1383.1,5317.9
			c4.1,1.5,7.5,3.6,10.9,6.3c-1-3.3-1.2-4.4-0.8-6.4c0.5-2.6,0.4-2.8,3.2-1.8c2.5,0.9,4.4,2.7,6.1,4.6c1.4,1.6,2.8,3.2,4.2,4.9
			c0.9-1.9,1.1-3.9,1.2-6.1c1.1,0.9,1.6,1.8,2.2,2.7c3.6,6,4.6,12.7,5.4,19.5c0.4-0.1,0.4-0.3,0.4-0.5c0.7-4.5,1.5-9,3.1-13.3
			c1.1-2.9,0.4-5-1.6-7c-0.1-0.1-0.2-0.2-0.3-0.3c-1.6-1.8-2.6-3.9-3.4-6.2c-0.1-0.4-0.4-0.9-0.1-1.2c0.3-0.4,0.8,0.1,1.2,0.2
			c2.4,0.9,4.5,2.3,6.6,4.1c0.2-1.2,0.4-2.3,0.6-3.3c1.2-5.2-0.2-9.8-3.8-13.7c-4.4-4.7-10.2-6.6-16.2-8c-0.2,0-0.7-0.1-0.5,0.2
			c0.8,1-0.4,0.8-0.6,0.9c-1.3,0.5-2.5,1-3.6,1.9c-1.8,1.5-2.6,3.5-2,5.9c0.2,0.8,0.4,1.2,1.3,1.1c1.6-0.2,3.1,0,4.6,0.3
			c2.8,0.4,5.3,1.3,7.4,3.6c-4.7,1.1-9.1,2.5-13.4,4.4C1391.2,5312.5,1387.1,5314.9,1383.1,5317.9z M1469.7,5332.8
			c5.2-13.6,10.9-26.8,17-40c-3.4,1-6.4,2.5-8.7,5.6c-2.3-6.5-0.1-12,2.7-17.6c-4.5,0.5-9,0.9-13.3,2.8c-1.2,0.5-2.3,1.3-3.3,2.1
			c-1,0.8-1.3,1.8-1,3.1c2.4,12.5,4.3,25.2,5.8,37.8C1469.2,5328.7,1469.5,5330.8,1469.7,5332.8z M1345.4,5316.6
			c-0.4-3.1-2.3-5.1-5.2-5.8c-0.7-0.2-0.9,0-0.8,0.7c0.2,1.2,0.4,2.4,0.6,3.6c1.8,7.8,5.4,14.4,12.2,18.9c4.5,3,9.6,4.3,14.9,5.2
			c-0.1-0.2-0.1-0.4-0.2-0.5c-4.8-6.8-9.7-13.5-14.8-20c-0.5-0.6-1-0.7-1.7-0.6c-1.7,0.1-3.5,0.3-5.3,0.4c0.8-1.4,2-2.4,3.1-3.3
			c0.3-0.2,0.8-0.4,0.4-0.9c-0.7-0.7-1.1-1.8-2.2-2.3C1346.5,5313.6,1346.2,5315,1345.4,5316.6z M1526.7,5260.2
			c-1.1-0.3-1.9-0.6-2.8-0.9c-0.9-0.3-1.9-0.5-2.7-1c-2.2-1.4-3.6-0.7-5.3,1c-5.3,5.4-10.3,10.9-14.5,17.2c-0.3,0.5-0.8,0.9,0.2,1.1
			c2.8,0.4,5.6,0.9,8.4-0.4c2.1-1,4.3-2,6.6-2.7c2.4-0.7,3.9-2.3,5.2-4.4c0.6-1,1.3-2.1,1.6-3.3
			C1524,5264.6,1524.9,5262.3,1526.7,5260.2z M1479.2,5263.7c-0.6-2.2-1.4-4.2-2.4-6.2c-0.1-0.2-0.4-0.3-0.6-0.5
			c-6.4-3.8-13.3-6.3-20.7-7.6c-0.8-0.1-1.2,0-0.9,1c0.6,2.2,1.1,4.4,1.7,6.6c0.9,3.7,1.8,7.5,2.7,11.4c0.6-0.7,1.1-1.2,1.6-1.8
			c1.8-2,3.8-3.7,6.2-4.8c4-1.9,7.7-1.6,11.2,1.1C1478.4,5263.3,1478.6,5263.6,1479.2,5263.7z M1365.3,5396.7
			c-4.1-9.1-19.1-15.5-30.4-12.9C1345.4,5387.7,1355.4,5391.9,1365.3,5396.7z M1338.6,5386.8c1.2,1.3,2.5,2.3,3.4,3.8
			c1.4,2.2,3.4,3.4,5.7,4.3c2.8,1.1,5.8,1.7,8.8,2c1.2,0.1,2.4,0.5,3.9,0.2C1353.1,5393.4,1345.9,5389.9,1338.6,5386.8z
			 M1469.5,5272.7c-2.7-1.5-5.6-1.7-8.6-1.4c-0.9,0.1-1,0.5-0.8,1.4c0.4,1.8,0.8,3.7,1.1,5.6c0.4,1.9,0.8,3.9,1.2,5.9
			c0.5-0.3,0.4-0.6,0.5-0.9c0.6-2.6,1.2-5.1,2.5-7.4C1466.2,5274.3,1467.4,5272.9,1469.5,5272.7z M1448.3,5226.6
			c3.4-3.1,3.8-11.8,1-18.1C1448.1,5212.1,1447.6,5221.3,1448.3,5226.6z M1380.4,5338.6c-3,0.7-5.6,0.6-8.3-0.4
			c-0.3-0.1-0.8-0.8-1.2-0.1c-0.3,0.5-0.5,1,0,1.6c1.1,1.3,2,2.7,3,4.1c0.3,0.5,0.6,0.6,1.2,0.3
			C1377.5,5343,1379.2,5341.3,1380.4,5338.6z M1353.9,5318.1c2.2,2.7,4.3,5.1,6.2,7.6c0.9,1.3,1.6,1.1,2.6,0.3
			c0.8-0.7,0.7-1-0.1-1.6c-1.1-0.8-2.2-1.6-3-2.7c-0.6-0.9-0.4-1.4,0.7-1.6c0.3-0.1,0.7,0,1,0c0.3,0,0.7,0,1-0.1
			C1359.7,5318.7,1357,5318.1,1353.9,5318.1z M1342.9,5303.3c0.9,1.3,1.9,2.3,2.3,3.6c0.8,2.6,2.8,4.3,4.5,6.3
			c0.2,0.3,0.4,0.7,0.9,0.5c0.9-0.3,1.7-0.6,2.8-1c-1.5-1.2-2.8-2.3-4-3.6c-1.2-1.3-2.4-2.6-3.3-4.2
			C1345.3,5303.9,1344.3,5303.5,1342.9,5303.3z M1418,5341.4c3.8-3.4,4.9-11,2.6-14.2C1419.6,5331.9,1418.7,5336.5,1418,5341.4z
			 M1362.7,5328.9c1.1,1.4,2.1,2.7,3.2,4.1c1,1.3,2.9,1.7,4.4,1c0.8-0.4,0.8-1.3,1-2c0.1-0.4-0.3-0.4-0.5-0.5
			C1368,5331,1365.4,5329.9,1362.7,5328.9z M1353.7,5299.2c-0.9,0.2-1.9,0.4-2.8,0.6c-0.5,0.1-1.4,0-1.3,0.8
			c0.1,0.8,0.1,1.8,1.2,2.1c1.2,0.3,2.3,0.7,3.5,1c0.6,0.2,0.9,0.1,0.7-0.7c-0.2-1-0.3-2-0.4-3
			C1354.6,5299.4,1354.4,5299.1,1353.7,5299.2z M1385.5,5324.4c-0.4-2.2-1.1-3.9-2.1-5.5c-0.2-0.4-0.4-1-1-0.4
			c-0.8,0.8-1.8,1.2-2.1,2.4c0,0.1,0.2,0.2,0.3,0.3C1382.3,5322,1383.8,5323.1,1385.5,5324.4z M1443.4,5227.8
			c-1.4-2.8-3.2-5.3-5.5-7.4C1439.2,5223.2,1441,5225.7,1443.4,5227.8z M1326.6,5380.1c-1.8-1.5-3.9-2.4-6.2-2.6
			C1322.3,5378.7,1323.9,5380.7,1326.6,5380.1z M1420.3,5209.9c0.7,0.3,0.3,1.5,1.3,1.3c0.2,0,0.6-0.6,0.5-0.8
			C1421.8,5209.8,1421,5210,1420.3,5209.9z"/>
		<path class="st0" d="M1458.8,5515.9c-71.9,0-143.8,0-215.8,0c-4.3,0-7.6-1.7-10.3-4.8c-3.8-4.6-5.8-10-6.6-15.8
			c-1.2-8.2-0.3-16.2,3.3-23.7c1-2.1,2.3-4,3.9-5.6c2.5-2.7,5.5-4.2,9.4-4.2c143.9,0,287.9,0,431.8,0c4.2,0,7.4,1.6,10.1,4.6
			c4,4.7,6,10.3,6.8,16.3c1.2,8.3,0.2,16.3-3.6,23.8c-1,2-2.3,3.9-3.8,5.5c-2.5,2.5-5.4,4-9,4
			C1603,5515.9,1530.9,5515.9,1458.8,5515.9z"/>
		<path class="st0" d="M1484.7,5334c9.5-2.2,19-2.7,28.4,0.8c-2.3-5.3-9.4-13.1-16.9-18.7c2.5,0.4,4.8,1.1,7,1.8
			c2.3,0.7,4.4,1.7,6.8,2.8c0.1-2.3-0.7-4.2-1.4-6.1c3.5,1.8,11.2,9.1,13,16.2c1.3-5.1,4.4-8.9,8-12.5c0.1,2,0,3.7,0.4,5.4
			c0.4,1.3,0.7,2.9,1.9,3.3c0.9,0.3,1.8-1.2,2.6-2.1c2.2-2.3,3.8-5,5.1-8.1c1.8,3.8,2.6,7.6,2.7,11.7c3.1-1.6,4.7-4.2,5.5-7.4
			c1.4,4.2,1.9,8.5,1.6,12.8c-0.5,6.4-2.9,11.9-7.4,16.5c-2.1,2.2-2.9,5.2-3.6,8.2c-1.2,4.5-1.3,9-1,13.6c0,0.2,0.1,0.4,0.1,0.5
			c0.5,0.1,0.6-0.3,0.8-0.5c9.4-11.7,19.6-22.7,30.6-33c2-1.9,2.8-4.8,3.4-7.6c1.3-6.6-1.3-11.3-7.5-13.8c-0.5-0.2-1-0.4-1.9-0.8
			c3.2-0.9,6.1-0.7,8.9,0.3c-0.1-3-2.4-5.6-7.2-8.2c3.6-0.5,6.9-0.1,10.4,0.8c-1.3-3.4-0.2-6.3,1.5-9.3c1.3,2,2.6,3.7,4.4,5
			c2.4,1.7,4.7,1.4,6.6-0.9c0.5-0.6,0.8-1.2,1.2-1.8c1.7,2.3,2.1,4.8,1.6,7.5c3.2-3.1,3.9-8.6,1.8-13.6c3,1,5.1,2.7,6.4,5.3
			c0.5,1,1,1.5,2.3,1.1c2.6-0.7,5.2-0.5,7.8,0.6c-1.3,1.2-2.6,2.3-3.6,3.7c-0.8,1.1-1.6,2.2-1.6,3.7c0,0.7,0.3,1.1,1,1
			c1.4,0,2.6-0.5,3.7-1.2c2.5-1.4,4.5-3.4,6.1-5.7c0.7-1,1.1-0.9,1.6,0.1c0.5,1.1,0.9,2.3,0.6,3.5c-0.2,0.9,0.1,1.1,0.9,1
			c4.6-0.1,8.2,2.1,12,5.1c-1.5-0.2-2.5-0.3-3.6-0.4c-3.5-0.2-6.8,0.2-9.6,2.5c-1,0.8-1,1.5-0.2,2.4c1.2,1.5,2.9,1.8,5,2.2
			c-2.7,1.6-5.2,1.7-8,0.9c0.9,2.8,2.6,4.5,4.8,5.9c-2.9,0.2-5.8,0-8.8-1.6c2,4,4.4,6.8,8.6,8c-3.3,0.6-6.6,0.6-10.4-0.2
			c2,2,3.6,3.9,4.7,6.3c-1.6-0.4-3-1.1-4.6-1.3c-2-0.2-3.3,0.2-3.6,1.3c-0.3,1.1,0.6,2.2,2.5,2.9c1.7,0.6,3.5,0.8,5.7,1
			c-2.2,2.3-4.7,2.7-7.7,2.4c0.9,0.9,1.7,1.5,2.2,2.3c1,1.5,1.3,3,0.9,4.7c-0.2,0.8-0.4,0.9-1.1,0.4c-1.5-1.3-3.4-2.1-5.3-2.6
			c-1.1-0.3-1.5,0.1-1.7,1.1c-0.1,0.9-0.2,1.9,0.2,2.6c0.8,1.3,0.3,2.4,0,3.6c-1,4.1-2.8,7.8-5.4,11.6c10-2.7,19.6-2.2,29.2,1.6
			c-2.4,1.4-4.7,2.8-6.5,5.1c2.2-0.1,4.2-0.3,6.1,0.3c1.6,0.4,3,1.1,4.4,1.9c1.1,0.6,0.9,1.2,0.2,2c-2.3,2.5-5.3,3.4-8.6,4
			c-0.4,0.1-0.8,0.1-1.5,0.2c1.5,2.4,3.6,3.6,6.2,4.6c-4.6,1.5-8.9,1.5-13.1,0c-1.6-0.6-1.8-0.4-1.5,1.3c0.4,1.9,1.5,3.5,2.8,4.8
			c1,1,2.1,1.9,3.3,3c-12.6,1.8-24.4-0.4-36.2-3.9c2.6,2.2,5.1,4.3,7.5,6.6c2.4,2.4,4.7,4.9,6.6,7.7c2,2.8,3.7,5.7,5,9.3
			c-2.9-1.1-5.5-2.2-8.1-3.2c2.5,3.6,3.7,7.4,2.9,12c-2.2-2.9-5.2-3.8-8.2-4.7c-1-0.3-1.3,0.1-1.5,1c-0.3,1.6,0.2,3.1,0.8,4.5
			c0.8,2,2.1,3.8,3.5,5.8c-4.8-1.1-8.9-2.7-12.1-6.2c-1.2-1.3-2.1-2.9-2.3-4.8c-0.1-0.9-0.4-1.1-1.3-0.7c-2,0.9-3.8,2-4.5,4.4
			c-1.1-2-1.5-4.1-1.7-6.1c-0.3-3.2,0.5-6.3,0.8-9.4c1.2-10-2.5-18.3-9.7-25.1c-4.7-4.4-10.3-7.4-16.3-9.7c-1-0.4-1.3,0.1-1.7,0.7
			c-8.8,11.8-16.8,24.1-24.2,36.9c-6.3,10.8-12.1,21.9-17.5,33.2c-0.5,1.1-1.1,1.4-2.3,1.4c-3.5-0.1-3.5,0-2-3.2
			c11.7-24.6,25.5-47.9,42.2-69.4c0.6-0.7,0.7-1.3,0.3-2.2c-6.7-13.8-21.5-22.5-36.8-21.6c-0.4,0-0.8,0.2-1.1-0.2
			c-0.3-0.5-0.1-1,0.2-1.4c0.5-0.7,1.3-1.1,2.1-1.5c1.7-0.8,3.5-1.2,5.3-1.6c0.1-0.5-0.3-0.7-0.6-0.9c-2.7-2.3-5.9-3.5-9.5-3.7
			c-1.5-0.1-1.7-0.4-1-1.7c0.6-1.1,1.5-1.7,2.7-2.1c0.4-0.2,1,0,1.4-0.6C1493.7,5336.9,1489.3,5335.3,1484.7,5334z M1599.3,5357.4
			c-4.7-2.4-7.5-6.5-10.2-10.7c-1-1.6-1.8-3.2-2.7-4.8c-1.9-3.7-5.1-5-9.1-3.9c-2.2,0.6-4,1.9-5.7,3.4
			c-11.1,9.6-20.6,20.7-29.6,32.2c-0.1,0.2-0.3,0.4-0.1,0.7c4.3,0.1,8.6-0.3,12.9-0.9c6.9-0.9,13.6-2.5,19.8-5.6
			c6.7-3.4,11.8-8.2,13.6-15.8c0-0.1,0.2-0.2,0.4-0.4c3.1,3.6,1.7,7.5,0.6,11.5C1593.1,5362.1,1596.4,5360.3,1599.3,5357.4z"/>
	</g>
</g>
</svg>
