<?xml version="1.0" encoding="utf-8"?>
<!-- Generator: Adobe Illustrator 26.3.1, SVG Export Plug-In . SVG Version: 6.00 Build 0)  -->
<svg version="1.1" id="Ebene_1" xmlns="http://www.w3.org/2000/svg" xmlns:xlink="http://www.w3.org/1999/xlink" x="0px" y="0px"
	 viewBox="0 0 500 500" style="enable-background:new 0 0 500 500;" xml:space="preserve">
<style type="text/css">
	.st0{fill:#FFFFFF;}
</style>
<g>
	<path class="st0" d="M16.4,488.8c3.6-3.8,7.2-7.5,10.9-11.3c16.1-16.3,32.3-32.6,48.4-48.9c12-12.1,24-24.2,36-36.4
		c16.7-16.9,33.4-33.8,50-50.6c11.9-12.1,23.9-24.2,35.8-36.2c16.7-16.9,33.4-33.8,50.2-50.7c11.9-12,23.8-24.1,35.7-36.1
		c16.8-17,33.5-33.9,50.3-50.9c11.8-12,23.7-23.9,35.5-35.9c16.8-17,33.7-34.1,50.5-51.1c11.8-12,23.7-23.9,35.5-35.9
		c10.9-11,21.8-22,32.6-33.1c0.4-0.4,0.8-1,1.3-1.6c0.5,0.9,0.4,1.6,0.4,2.2c0,40.6,0,81.2,0,121.8c0,117.5,0,235,0,352.5
		c0,0.7,0,1.4,0,2.2C331.8,488.8,174.1,488.8,16.4,488.8z M375.9,450.4c16.5,0,33.1,0,49.6,0c2.8,0,3.2-0.4,3.1-3.2
		c-0.2-8.1,0.3-16.3-0.3-24.4c-0.2-2.5,1.3-3.7,3.8-3.5c1.3,0.1,2.7,0.3,4,0.3c2.8,0,3.1-0.3,3.1-3c0-6.8,0-13.6,0-20.4
		c0-1.8-0.2-3.6-0.2-5.3c0-2.1,1-3.1,3.1-3c1.1,0,2.2,0.2,3.3,0.3c3.1,0.2,3.6-0.2,3.6-3.4c0-14.2-0.1-28.4-0.1-42.6
		c0-3.2,0.1-6.5,0.1-9.7c0-5.5,0-10.9,0-16.4c0-1.5-0.7-2.4-2.3-2.4c-1.5,0-3,0-4.5-0.1c-1.9-0.1-2.7-0.9-2.8-2.8
		c-0.1-1.4,0-2.8,0-4.2c0-2.5-0.8-3.3-3.3-3.4c-1.4,0-2.8,0.1-4.2,0c-2-0.1-2.8-0.8-3-2.8c-0.2-1.4-0.2-2.8-0.1-4.2
		c0-2.3-0.3-2.7-2.7-2.7c-5.4,0-10.8,0-16.2,0c-1.8,0-2.3-0.5-2.2-2.3c0-1.6,0-3.2,0.1-4.8c0.1-2.7-0.8-3.5-3.5-3.4
		c-8.2,0.5-16.5-0.3-24.7,0.4c-2.6,0.2-3.8-1.2-3.8-3.7c0-1.5,0.2-3,0.4-4.5c0.3-2.7-0.3-3.5-3-3.5c-5,0-9.9,0-14.9,0.1
		c-2.9,0-3.4-0.5-3.4-3.4c0-7.4,0.1-14.7,0.1-22.1c0-4.3,0-8.6-0.1-12.9c0-2.2-0.7-2.7-2.8-2.8c-1.8-0.1-3.6,0-5.3,0
		c-1.7,0-2.2-0.5-2.2-2.1c0-1.9,0-3.8,0-5.7c0.1-2.2-0.5-2.8-2.7-2.8c-5.7,0-11.5,0.1-17.2,0c-1.6,0-2.1,0.6-2.1,2c0,2,0,4-0.1,6
		c-0.1,1.5-0.9,2.4-2.4,2.4c-1.3,0-2.6,0.1-3.8,0.1c-2.8,0-3.4,0.7-3.4,3.5c0,4.7,0,9.5,0,14.2c0,24.1,0,48.2,0,72.4
		c0,0.6,0,1.2,0,1.8c-0.1,1.2-0.7,1.9-1.9,1.9c-1.8,0-3.6,0.2-5.3-0.1c-2.3-0.4-2.9-1.1-3.1-3.4c-0.1-1.3-0.1-2.6-0.1-3.8
		c0-2.7-0.6-3.2-3.3-3.2c-8.5,0-17,0-25.6,0c-2.4,0-2.8,0.4-2.8,2.8c0,8.2,0,16.5,0,24.7c0,0.8,0.1,1.6,0.2,2.3
		c0.1,1.6,1.1,2.4,2.6,2.5c1.7,0.1,3.5,0.1,5.2,0.1c1.3,0,1.8,0.5,1.8,1.8c-0.1,2.1-0.1,4.1-0.1,6.2c0,2,0.6,2.7,2.5,2.7
		c1.8,0,3.6,0,5.3,0c2.6,0,2.8,0.3,2.7,2.9c-0.1,4.8,0.1,9.6-0.3,14.4c-0.3,3,1.2,4.2,4.1,4c1.2-0.1,2.4-0.3,3.7-0.4
		c2.4-0.2,3.1,0.4,3.1,2.7c0,5.2-0.1,10.5-0.1,15.7c0,2.1,0.5,2.7,2.6,2.7c2,0,4,0,6,0c1.4,0,2,0.7,2,2c0,0.5,0,1,0,1.5
		c0,4.9-0.1,9.8,0,14.7c0,2.1,0.9,3.1,2.6,2.9c1.5-0.2,3-0.1,4.5-0.2c2.9-0.1,3.7,0.6,3.6,3.4c-0.3,8,0,15.9-0.1,23.9
		c0,0.5,0,1,0,1.5c0.1,1.2,0.7,1.9,2,2c1.4,0.2,2.8,0,4.2,0C344.4,450.4,360.2,450.4,375.9,450.4z"/>
	<path class="st0" d="M323.3,298.2c0-21.1,0-42.2,0-63.3c0-3.2,0.5-3.6,3.5-3.5c4.5,0.1,8.9,0.1,13.4,0c2.8-0.1,3.4,0.5,3.4,3.4
		c0,28.6,0,57.3,0,85.9c0,4.1,0.3,4.4,4.5,4.4c1.4,0,2.9,0,4.3-0.1c1.4-0.1,2.3-0.8,2.3-2.3c0-1.1,0.2-2.1,0.2-3.2
		c0-10.7-0.1-21.4-0.1-32.1c0-3,0.6-3.6,3.6-3.6c4.5,0,9,0.1,13.5,0.1c3,0,3.3,0.2,3.3,3.2c0,11.4-0.1,22.7-0.1,34.1
		c0,0.5,0,1,0,1.5c0.1,1.5,0.9,2.3,2.5,2.3c1.7,0,3.3,0,5-0.1c2.8-0.1,3.7-1.1,3.8-3.9c0.1-2.4,0.1-4.8,0.1-7.2
		c0-5.6,0-11.1-0.1-16.7c0-2.3,0.5-2.9,2.8-2.8c4.8,0.2,9.7,0.2,14.5,0c2.3-0.1,2.9,0.5,2.9,2.8c0,11,0,22.1,0,33.1
		c0,1.2-0.2,2.4,0,3.7c0.2,1.2,0.8,1.9,2,1.8c2-0.1,4,0.1,6,0.3c2.5,0.2,4-1.3,3.7-3.8c-0.8-8,0-15.9-0.4-23.9c-0.2-4,0.1-4.2,4-4.2
		c5.3,0,5.7,0.4,5.7,5.6c0,4.9,0,4.9,4.9,4.9c5.2,0,5.6,0.4,5.6,5.6c0,21.3,0,42.7,0,64c0,2.7-0.5,3.2-3.2,3.1c-1.8-0.1-3.6,0-5.3,0
		c-2.3,0-2.8,0.5-2.8,2.7c0,4.2,0,8.4,0,12.5c0,4.2,0.1,8.5,0.1,12.7c0,3.2-0.4,3.6-3.5,3.6c-1.1,0-2.2,0-3.3,0.1
		c-1.7,0.1-2.6,1-2.7,2.8c-0.2,4.8-0.4,9.7-0.1,14.5c0.2,2.8-0.5,3.6-3.2,3.6c-2.4,0.1-4.8,0-7.2,0c-23.5,0-46.9,0-70.4,0
		c-2.7,0-2.7,0-2.7-2.7c0-5.2,0-10.4,0-15.5c0-2.2-0.6-2.8-2.8-2.7c-1.4,0-2.8,0.3-4.2,0.3c-2.9,0.1-4.2-1.1-4-4
		c0.5-5.3,0-10.6,0.3-15.9c0.1-1.9-0.4-2.3-2.4-2.3c-1.6,0-3.2,0.2-4.8,0.3c-2.5,0.1-3.9-1-3.6-3.4c0.4-4.5-0.1-9,0.3-13.5
		c0-0.6,0-1.2,0-1.8c0-1.2-0.7-1.8-1.9-1.8c-1.8,0-3.6,0-5.3,0.1c-1.9,0.1-2.5-0.5-2.5-2.4c0-5.2,0-10.5,0.1-15.7c0-2.6-0.5-3-3-3
		c-2.1,0-4.2,0-6.3,0.1c-1.5,0-2.2-0.7-2.1-2.1c0.1-1.4,0.3-2.9,0.4-4.3c0.3-3.1-1-4.5-4.2-4.3c-1.5,0.1-3,0.2-4.5,0.3
		c-1.5,0.1-2.2-0.6-2.2-2.1c0-5.4,0-10.8,0-16.2c0-1.4,0.7-2,2-2.1c5.4,0,10.8,0,16.2,0c1.4,0,2.1,0.6,2,2.2
		c-0.2,1.5-0.2,3.1-0.3,4.7c-0.2,2.6,0.7,3.8,3.3,4c1.6,0.1,3.2-0.1,4.8-0.3c2.9-0.2,3.5,0.3,3.5,3.2c0,8.1-0.1,16.3-0.1,24.4
		c0,2.6,0.6,3.3,3.2,3.2c1.5,0,3,0,4.5-0.2c1.7-0.2,2.6-1.2,2.7-2.8c0.1-1.4,0.2-2.8,0.2-4.2C323.3,338.9,323.3,318.5,323.3,298.2z"
		/>
</g>
</svg>
