<?xml version="1.0" encoding="utf-8"?>
<!-- Generator: Adobe Illustrator 26.3.1, SVG Export Plug-In . SVG Version: 6.00 Build 0)  -->
<svg version="1.1" id="Ebene_1" xmlns="http://www.w3.org/2000/svg" xmlns:xlink="http://www.w3.org/1999/xlink" x="0px" y="0px"
	 viewBox="0 0 500 500" style="enable-background:new 0 0 500 500;" xml:space="preserve">
<style type="text/css">
	.st0{clip-path:url(#SVGID_00000088825834002882087420000013424335116274844070_);}
	.st1{fill:#FFFFFF;}
</style>
<g id="Gruppe_383" transform="translate(-1287.532 -3743.813)">
	<g id="Gruppe_358" transform="translate(1287.532 3743.813)">
		<g>
			<defs>
				<rect id="SVGID_1_" x="24.1" y="5.9" width="453.1" height="489"/>
			</defs>
			<clipPath id="SVGID_00000160148043366659237810000012766781336398512532_">
				<use xlink:href="#SVGID_1_"  style="overflow:visible;"/>
			</clipPath>
			
				<g id="Gruppe_357" transform="translate(0 0)" style="clip-path:url(#SVGID_00000160148043366659237810000012766781336398512532_);">
				<path id="Pfad_232" class="st1" d="M175.4,466.4c-85.8-88-47.4-211,2.1-286.4c-24.9-47.3-22.1-109.6-23.3-117.1
					c-0.8,1.7-114.9,87.5-128.5,200.5c-17.9,149.1,116.6,234,189.7,231.5C200.7,487.6,187.1,478,175.4,466.4"/>
				<path id="Pfad_233" class="st1" d="M472.9,209.9C451.3,37.2,475.8,7.6,476.5,5.9c-2.2,1.4-153,35.2-257.8,156.3
					c-55.4,64.3-113.6,199.1-14.4,294.9c15.8,14.5,34.2,25.8,54.3,33.3C216.2,410.8,238.4,279,349,175
					c-101.2,119.2-90.9,258.7-58.1,316.8C410.9,496.2,497.7,407.8,472.9,209.9"/>
			</g>
		</g>
	</g>
</g>
</svg>
