<?xml version="1.0" encoding="utf-8"?>
<!-- Generator: Adobe Illustrator 26.3.1, SVG Export Plug-In . SVG Version: 6.00 Build 0)  -->
<svg version="1.1" id="Ebene_1" xmlns="http://www.w3.org/2000/svg" xmlns:xlink="http://www.w3.org/1999/xlink" x="0px" y="0px"
	 viewBox="0 0 500 500" style="enable-background:new 0 0 500 500;" xml:space="preserve">
<style type="text/css">
	.st0{fill:#FFFFFF;}
</style>
<path id="Pfad_217" class="st0" d="M403.1,259.3c-8.1-7.8-18.9-12.2-30.1-12.2c-7.2,0-14.3,1.8-20.7,5.2c-8.6-9.6-20.4-15.7-33.2-17
	c-0.9-10.8-1.7-21.5-2.2-32.3c-0.4-7.6,0.5-15.2,6.4-20.8c3.8-3.7,7.9-7.2,12.2-10.3c5.4-4,11-7.6,16.9-10.9
	c11.7-6.5,24.9-10,38.3-10c-19,7.4-36.6,16.2-51.1,27.8c14.8,15.5,44.3,20.2,63.2-13.6c4.2-8.2,9.9-15.5,16.9-21.6
	c-11.2-3.9-22.2-12.6-36.7-14.9c-36.5-5.7-54.5,9.1-52.6,31.3c0.2,1.7,0.5,3.4,1,5.1c-5.3,3.8-10.4,8-15.1,12.6
	c-0.2-12.8,0.2-25.8,1.2-38.9c1.1-9,1.5-18.2,1.2-27.3c-0.2-3.3-0.5-6.6-1.1-9.9c1.2-0.7,2.4-1.4,3.5-2.3c14-11.5,12.3-31-12-50
	c-9.5-7.6-20.9-9.3-29.6-13.9c0.5,7.6-0.6,15.3-3,22.6c-8.8,30.9,10.8,46.1,28.2,46.4c-2-16.3-6.3-32.2-12.9-47.2
	c7.6,8.3,13.1,18.3,16,29.2c1.4,5.4,2.5,10.9,3.3,16.4c0.4,2.5,0.6,5,0.8,7.5c1.3,19-5.8,55.2-5.8,80.4c-4.8-4.7-10-9-15.4-12.9
	c0.5-1.6,0.8-3.3,1-5.1c2-22.2-16.1-36.9-52.6-31.2c-14.5,2.2-25.5,11-36.7,14.9c7,6,12.7,13.3,16.9,21.6c19,33.7,48.4,29,63.3,13.6
	c-14.6-11.7-32.2-20.4-51.1-27.9c13.4,0.1,26.5,3.6,38.2,10c5.9,3.2,11.6,6.9,17,10.9c3.9,2.8,7.6,5.9,11,9.2
	c8.3,7.8,8.6,10.5,8.9,21.4c0.3,6.6,0.5,13.4,0.9,20.2c-8.1,1-15.9,3.9-22.7,8.6c-5.2-3.2-11.3-4.9-17.4-4.9
	c-11.4,0-22.1,5.8-28.4,15.4c19.8,8.6,40.3,15.2,61.4,19.7c16.8,3.8,33.7,6.5,50.6,9.9c4.3,0.8,8.4,2.2,12.3,4.1l4.6-2.4
	c2.3-1.2,4.6-2.5,6.7-3.9C384.6,275.2,394.2,267.6,403.1,259.3 M298.3,283.2c-24.3-5.1-47.9-13.1-70.3-23.7
	c-51.8-25-103.8-22.6-144.8,13.4c-11.5,10.1-18.1,15.6-32.5,22.1L9,313.9c-7.3,3.3-3.7,28,8,55.3c11.7,27.2,27,46.5,34.3,43.3
	l67.3-30.5c14.7-6.6,34.8-9.7,58.6-2.8l74.5,21.7c23,6.7,48.9,10,70.1-1.6l78.4-42.9c25.3-13.8,33.1-15.1,48.6-37.2l40-57.1
	c11.2-16-0.5-32.3-15.7-26.7c-7.8-7.6-16.7-6.5-26.7,0.2c-28.5,18.9-47.8,44.6-74.5,58.5c2.9,2.5,5.1,5.7,6.5,9.3
	c9.6,26-24.7,42.7-45.4,39.2l-67.7-11.8c-16.6-2.9-33.1-2.2-48.6,4.4c-5.7,2.5-8.2-6.5-2.4-8.9c16.3-6.7,34-7.7,52.5-4.5l31.6,5.4
	l36.1,6.3c14.4,2.5,42-8.9,35.4-26.8c-2.2-6.1-10.1-11.4-20.7-13.5C333.4,290,316.3,287.3,298.3,283.2"/>
</svg>
