<?xml version="1.0" encoding="utf-8"?>
<!-- Generator: Adobe Illustrator 26.3.1, SVG Export Plug-In . SVG Version: 6.00 Build 0)  -->
<svg version="1.1" id="Ebene_1" xmlns="http://www.w3.org/2000/svg" xmlns:xlink="http://www.w3.org/1999/xlink" x="0px" y="0px"
	 viewBox="0 0 500 500" style="enable-background:new 0 0 500 500;" xml:space="preserve">
<style type="text/css">
	.st0{fill:#23A638;}
</style>
<g>
	<g>
		<path class="st0" d="M246.1,64.2c2.6,0,5.1,0,7.7,0c0.2,0.2,0.5,0.2,0.8,0.2c3.6,0.2,7.2,0.7,10.8,1.5c33.2,7,57.4,36.6,57.8,70.5
			c0,0.9,0.3,1.1,1.2,1.1c6.8,0,13.5-0.1,20.3,0c17.4,0.2,32.1,6.7,43.9,19.5c8.5,9.3,13.4,20.4,14.9,33c0.6,4.9,0.3,9.7,0.4,14.6
			c0,1,0.2,1.3,1.3,1.3c6.1,0,12.2-0.3,18.3,0.5c17,2.1,31.8,9.1,44,21.1c13.3,13,20.8,28.9,22.6,47.4c0.1,1.5,0,2.9,0.4,4.4
			c0,1.5,0,3,0,4.6c-0.3,0.3-0.2,0.6-0.2,0.9c-0.1,3.6-0.5,7.1-1.2,10.6c-6.5,35.3-37.2,61.4-73.1,62c-1.1,0-1.4,0.3-1.4,1.4
			c0,20.2,0,40.4,0,60.6c0,0.5,0,0.9,0,1.4c-0.6,0-0.9-0.3-1.3-0.5c-35.4-20.7-70.9-41.3-106.3-62c-1-0.6-2-0.9-3.2-0.9
			c-73,0-146,0-219,0c-5.2,0-10.3-0.6-15.3-1.7c-16.1-3.6-29.8-11.4-40.7-23.8c-15.8-18.1-22-39.3-18.1-63
			c3.2-19.3,12.8-34.9,28.2-47c11.3-8.9,24.2-14,38.6-15.6c5.6-0.6,11.2-0.4,16.8-0.4c1.9,0,1.9,0,1.9-1.9c0-6.2-0.1-12.3,1-18.4
			c5-26.7,28.3-47.1,55.5-48.1c7.6-0.3,15.2-0.1,22.8-0.1c0.9,0,1.2-0.1,1.3-1.1c0.1-5.7,0.8-11.3,2.2-16.8
			c3.5-13.6,10.3-25.3,20.4-34.9c11.5-10.9,25.1-17.5,40.8-19.6C242.1,64.6,244.1,64.4,246.1,64.2z M325.2,244
			c0-2.8-0.2-5.6-0.6-8.4c-1.8-10.9-6.5-20.2-15.1-27.2c-11.7-9.6-25.2-12.5-39.8-9.4c-14.1,3-24.5,11.1-30.8,24.2
			c-4.2,8.7-5.2,18-4,27.5c1.7,13.5,8.1,24.4,19.6,31.9c9.4,6.2,19.9,8.3,31,7c10.9-1.3,20.3-5.7,27.9-13.8
			C321.6,266.8,325.1,256.1,325.2,244z M179.3,290c3.1-0.1,6.3-0.3,9.5-0.9c15.7-3.4,26.1-12.7,31-28.1c0.3-0.9,0.1-1.2-0.8-1.4
			c-4.7-1.4-9.3-2.8-14-4.2c-0.9-0.3-1.2,0-1.5,0.8c-1.5,4.5-4.1,8.4-7.8,11.4c-5.3,4.3-11.5,5.9-18.2,5.4
			c-10.5-0.7-18.3-5.7-22.9-15.3c-3.1-6.5-3.5-13.5-2.3-20.5c1.1-6.5,3.9-12.1,9-16.3c5.9-5,12.8-6.8,20.5-6.2
			c10.2,0.8,18,6.8,20.9,16.6c0.3,0.9,0.6,1,1.5,0.7c4.7-1.5,9.3-3,14.1-4.4c1-0.3,1-0.8,0.8-1.5c-2.9-9.9-8.6-17.6-17.6-22.7
			c-9.6-5.4-20-6.7-30.7-4.7c-14.8,2.7-25.8,10.9-32.4,24.5c-4.5,9.2-5.4,19-3.9,29c1.5,9.9,5.6,18.5,12.9,25.5
			C156.4,286.1,167.1,289.8,179.3,290z M346.5,301c5.7,0,11.4,0,17.2,0c0.8,0,1.1-0.2,1.1-1.1c0-2.8-0.1-5.6,0-8.4
			c0-1-0.3-1.3-1.3-1.3c-5.8,0-11.6,0-17.4,0c-0.5,0-1.4,0.4-1.6-0.3c-0.2-0.6,0.6-1,1.2-1.4c0.2-0.2,0.5-0.3,0.7-0.4
			c2.9-1.7,5.8-3.5,8.7-5.3c2.8-1.7,5.4-3.7,7.2-6.6c4.5-7.1,1.4-16.9-6.6-20.4c-5.5-2.5-11.3-2.5-17-0.6
			c-7.1,2.4-10.9,8.9-9.9,16.3c0.2,1.1,0.5,1.6,1.8,1.5c2.8-0.1,5.5-0.1,8.3-0.1c1.6,0,1.6,0,1.4-1.6c-0.5-3.3,1.3-6.1,4.2-6.9
			c2.8-0.7,5.3,0.1,6.5,2.2c1.3,2.1,0.7,4.6-1.4,6.7c-0.9,0.9-2,1.6-3.1,2.3c-2.3,1.3-4.5,2.7-6.8,4c-7.8,4.4-11.4,11.2-11.3,20.1
			c0,1,0.3,1.2,1.2,1.2C335.2,301,340.9,301,346.5,301z"/>
		<path class="st0" d="M252.2,244.2c0-6.6,1.2-12.4,4.6-17.5c5-7.7,12.3-11.5,21.4-12.1c14.5-0.9,26.5,8.8,28.7,23.2
			c1.1,7.4,0.6,14.7-3.1,21.5c-4.4,8.3-11.6,12.7-20.8,13.8c-8.1,0.9-15.3-1.1-21.5-6.5c-5.3-4.6-8-10.7-8.9-17.5
			C252.3,247.2,252.3,245.4,252.2,244.2z"/>
	</g>
</g>
</svg>
